<svg width="17" height="16" viewBox="0 0 17 16" fill="none" xmlns="http://www.w3.org/2000/svg">
<path d="M1.19257 14.8753C2.33325 16 4.16914 16 7.84093 16H8.48999C12.1618 16 13.9977 16 15.1383 14.8753C16.279 13.7506 16.279 11.9404 16.279 8.31997V7.67998C16.279 4.05957 16.279 2.24939 15.1383 1.12467C13.9977 0 12.1618 0 8.48999 0H7.84093C4.16914 0 2.33325 0 1.19257 1.12467C0.0519414 2.24939 0.0519409 4.05957 0.0519409 7.67998V8.31997C0.0519409 11.9404 0.0519414 13.7506 1.19257 14.8753Z" fill="#0077FF"/>
<path fill-rule="evenodd" clip-rule="evenodd" d="M12.5794 10.6347L11.483 10.3646C11.351 10.3272 11.2578 10.2101 11.2531 10.074L11.1162 6.09498C11.0766 5.56835 10.6802 5.14946 10.2658 5.02613C10.2426 5.01919 10.2177 5.02853 10.204 5.04826C10.1899 5.06834 10.1954 5.09609 10.2149 5.11097C10.3172 5.18909 10.5988 5.44393 10.5988 5.8835L10.598 11.0859C10.598 11.5882 10.1166 11.9567 9.62001 11.8344L8.50663 11.5601C8.38321 11.5176 8.29741 11.4042 8.29292 11.2734L8.15612 7.29415C8.11654 6.76752 7.72005 6.34868 7.30574 6.2253C7.28248 6.21841 7.25763 6.2277 7.24384 6.24743C7.22988 6.26751 7.23527 6.29527 7.25477 6.31018C7.35711 6.38827 7.6387 6.6431 7.6387 7.08267L7.63788 11.4192L7.63852 11.4192V12.2856C7.63852 12.7879 7.15705 13.1564 6.66049 13.034L3.51574 12.2595C3.07853 12.1518 2.772 11.7662 2.772 11.3239V6.11334C2.772 5.61102 3.25342 5.2426 3.74999 5.36489L5.73153 5.85298V4.91367C5.73153 4.41135 6.21294 4.04289 6.70951 4.16522L8.69091 4.65326V3.71396C8.69091 3.21164 9.17233 2.84317 9.66894 2.96551L12.8137 3.74008C13.2509 3.84777 13.5574 4.23338 13.5574 4.67566V9.8862C13.5574 10.3885 13.076 10.7569 12.5794 10.6347Z" fill="white"/>
</svg>
