<svg width="14" height="16" viewBox="0 0 14 16" fill="none" xmlns="http://www.w3.org/2000/svg">
<path d="M10.8726 8.50863C10.8544 6.48727 12.5277 5.50387 12.6042 5.45809C11.6566 4.07644 10.1878 3.88766 9.6716 3.87261C8.43796 3.74279 7.24133 4.61079 6.61291 4.61079C5.97194 4.61079 5.00422 3.88515 3.96125 3.90648C2.61911 3.92717 1.36352 4.70361 0.674891 5.9109C-0.746268 8.37128 0.313643 11.9869 1.67522 13.9756C2.35633 14.9496 3.1522 16.0371 4.19392 15.9989C5.21307 15.9575 5.59376 15.3498 6.82363 15.3498C8.04222 15.3498 8.3997 15.9989 9.46212 15.9744C10.5559 15.9575 11.2445 14.9967 11.9018 14.0133C12.6889 12.8975 13.005 11.7975 13.0175 11.741C12.9918 11.7316 10.8933 10.9307 10.8726 8.50863Z" fill="#39444F"/>
<path d="M8.86553 2.56448C9.41367 1.87899 9.78872 0.946395 9.68461 0C8.89124 0.0351213 7.89906 0.548771 7.32771 1.21921C6.82222 1.81 6.37066 2.77835 6.48731 3.689C7.37851 3.75547 8.29355 3.23932 8.86553 2.56448Z" fill="#39444F"/>
</svg>
