<svg width="16" height="16" viewBox="0 0 16 16" fill="none" xmlns="http://www.w3.org/2000/svg">
<g clip-path="url(#clip0_77_746)">
<path d="M6.29058 1.55493L0.290577 2.33427C0.123295 2.35587 -0.00148582 2.49896 -0.000110817 2.66762V7.33427C-0.000110817 7.51837 0.149139 7.66762 0.333233 7.66762H6.33323C6.51733 7.66762 6.66658 7.51837 6.66658 7.33427V1.88493C6.66645 1.78918 6.62517 1.69812 6.55323 1.63493C6.48076 1.57262 6.38548 1.54359 6.29058 1.55493Z" fill="#F44336"/>
<path d="M15.8866 0.417456C15.8152 0.353081 15.7194 0.322706 15.624 0.334112L7.62393 1.37746C7.45668 1.39905 7.33187 1.54214 7.33327 1.7108V7.33414C7.33327 7.51824 7.48252 7.66749 7.66662 7.66749H15.6666C15.8507 7.66749 16 7.51824 16 7.33414V0.667456C15.9998 0.571706 15.9585 0.480643 15.8866 0.417456Z" fill="#4CAF50"/>
<path d="M6.33323 8.33429H0.333233C0.149139 8.33429 -0.000110817 8.48354 -0.000110817 8.66763V13.3343C-0.00148582 13.5029 0.123295 13.646 0.290545 13.6676L6.29055 14.4503C6.30476 14.4513 6.31901 14.4513 6.3332 14.4503C6.5173 14.4503 6.66655 14.301 6.66655 14.1169V8.66763C6.66658 8.48354 6.51733 8.33429 6.33323 8.33429Z" fill="#2196F3"/>
<path d="M15.6666 8.33429H7.66658C7.48249 8.33429 7.33324 8.48354 7.33324 8.66763V14.291C7.33187 14.4596 7.45665 14.6027 7.6239 14.6243L15.6239 15.6677C15.6381 15.6686 15.6523 15.6686 15.6665 15.6677C15.8506 15.6677 15.9999 15.5184 15.9999 15.3343V8.66763C15.9999 8.48354 15.8506 8.33429 15.6666 8.33429Z" fill="#FFC107"/>
</g>
<defs>
<clipPath id="clip0_77_746">
<rect width="16" height="16" fill="white"/>
</clipPath>
</defs>
</svg>
