<svg width="17" height="16" viewBox="0 0 17 16" fill="none" xmlns="http://www.w3.org/2000/svg">
<path fill-rule="evenodd" clip-rule="evenodd" d="M11.5358 0H4.51667C1.20962 0 0 1.20516 0 4.5015V11.4979C0 14.7937 1.20962 16 4.51667 16H11.5336C14.8401 16 16.0519 14.7937 16.0519 11.4979V4.5015C16.0519 1.20516 14.8418 0 11.5353 0" fill="#C8102E"/>
<path d="M3.17906 8.00107H3.60465V10.0928H3.17906V9.24383H2.21746V10.0928H1.79132V8.00107H2.21746V8.84506H3.17906V8.00107ZM5.57778 9.19627C5.57778 9.53697 5.40799 9.71838 5.10059 9.71838C4.79319 9.71838 4.62062 9.53144 4.62062 9.18189V8.00273H4.19504V9.19627C4.19504 9.78474 4.52297 10.1221 5.09504 10.1221C5.66712 10.1221 6.00337 9.77866 6.00337 9.18189V8.00107H5.57778V9.19627ZM10.4984 9.43741L10.0218 7.99941H9.67442L9.19834 9.43741L8.73446 7.99941H8.28113L9.01301 10.09H9.36535L9.84199 8.71675L10.3197 10.09H10.6749L11.4051 7.99941H10.9612L10.4984 9.43741ZM12.168 9.19074H12.9448V8.81022H12.168V8.38159H13.2922V8.00051H11.7463V10.0895H13.331V9.71063H12.1658L12.168 9.19074ZM13.8404 10.0878H14.261V8.00107H13.8404V10.0878ZM6.84511 9.65366L6.65424 10.0895H6.21922L7.14419 7.99886H7.51929L8.44038 10.0895H7.99648L7.80782 9.65366H6.84511ZM7.00325 9.27702H7.64691L7.32342 8.53258L7.00325 9.27702Z" fill="white"/>
<path d="M8.02853 5.33779C7.32022 5.33691 6.64117 5.05605 6.14031 4.55682C5.63946 4.05759 5.35769 3.38073 5.35681 2.67471H5.73468C5.73468 3.28126 5.97641 3.86296 6.4067 4.29185C6.83698 4.72074 7.42057 4.96169 8.02908 4.96169C8.6376 4.96169 9.22119 4.72074 9.65147 4.29185C10.0818 3.86296 10.3235 3.28126 10.3235 2.67471H10.7008C10.6999 3.38083 10.4181 4.05777 9.9171 4.55702C9.41613 5.05626 8.73694 5.33705 8.02853 5.33779Z" fill="white"/>
</svg>
