<svg width="46" height="46" viewBox="0 0 46 46" fill="none" xmlns="http://www.w3.org/2000/svg">
<mask id="mask0_29_711" style="mask-type:alpha" maskUnits="userSpaceOnUse" x="0" y="0" width="46" height="46">
<path d="M0 9.96667C0 4.46223 4.46223 0 9.96667 0H36.0333C41.5378 0 46 4.46223 46 9.96667V36.0333C46 41.5378 41.5378 46 36.0333 46H9.96667C4.46223 46 0 41.5378 0 36.0333V9.96667Z" fill="url(#paint0_linear_29_711)"/>
</mask>
<g mask="url(#mask0_29_711)">
<path d="M0 9.96667C0 4.46223 4.46223 0 9.96667 0H36.0333C41.5378 0 46 4.46223 46 9.96667V36.0333C46 41.5378 41.5378 46 36.0333 46H9.96667C4.46223 46 0 41.5378 0 36.0333V9.96667Z" fill="url(#paint1_linear_29_711)"/>
<ellipse opacity="0.5" cx="34.1007" cy="34.2604" rx="7.26736" ry="7.26736" fill="url(#paint2_radial_29_711)"/>
<path opacity="0.12" d="M57.3403 35.1254L34.3538 12.1389L11.9792 34.5135L34.9657 57.5H57.3403V35.1254Z" fill="url(#paint3_linear_29_711)"/>
<path opacity="0.12" d="M57.3404 34.9679L34.192 11.8195L11.6598 34.3516L34.8083 57.5H57.3404V34.9679Z" fill="url(#paint4_linear_29_711)"/>
<path opacity="0.12" d="M57.3402 34.8103L34.03 11.5L11.3402 34.1897L34.6505 57.5H57.3402V34.8103Z" fill="url(#paint5_linear_29_711)"/>
<path opacity="0.12" d="M57.3403 34.6527L33.8682 11.1806L11.0209 34.0278L34.493 57.5H57.3403V34.6527Z" fill="url(#paint6_linear_29_711)"/>
<path opacity="0.12" d="M57.3404 34.4952L33.7064 10.8611L10.7015 33.866L34.3356 57.5H57.3404V34.4952Z" fill="url(#paint7_linear_29_711)"/>
<path opacity="0.12" d="M57.3402 34.3376L33.5443 10.5417L10.3819 33.7041L34.1778 57.5H57.3402V34.3376Z" fill="url(#paint8_linear_29_711)"/>
<circle cx="24.118" cy="24.118" r="18.5278" fill="url(#paint9_radial_29_711)"/>
<path fill-rule="evenodd" clip-rule="evenodd" d="M37.1511 32.1359C37.0915 31.958 37.1157 31.763 37.213 31.6026C38.735 29.0934 39.6112 26.149 39.6112 23C39.6112 13.8259 32.1742 6.38889 23.0001 6.38889C13.8261 6.38889 6.38901 13.8259 6.38901 23C6.38901 32.1741 13.8261 39.6111 23.0001 39.6111C26.1229 39.6111 29.0444 38.7494 31.5399 37.2508C31.6995 37.1549 31.8929 37.1312 32.0696 37.1899L38.5032 39.3288C38.992 39.4913 39.4565 39.0259 39.293 38.5374L37.1511 32.1359Z" fill="white"/>
<path fill-rule="evenodd" clip-rule="evenodd" d="M31.957 36.8651C31.8362 36.8237 31.7028 36.8406 31.5947 36.9086C25.2036 40.932 16.7338 40.2254 11.2542 34.7458C4.87627 28.3679 4.96469 17.9387 11.4517 11.4517C17.9388 4.96463 28.3679 4.87621 34.7459 11.2542C40.2429 16.7512 40.9365 25.2575 36.8701 31.6557C36.8011 31.7643 36.7839 31.8987 36.8258 32.0203L39.0926 38.5976C39.2057 38.9256 38.8919 39.24 38.5637 39.1276L31.957 36.8651Z" fill="#FAFAFA"/>
<path fill-rule="evenodd" clip-rule="evenodd" d="M17.3393 13.8316L17.259 13.7822L17.1795 13.8327C15.8249 14.6912 14.6504 15.8549 13.7718 17.2749L13.7222 17.355L13.7724 17.4347C14.1202 17.9863 14.2065 18.6908 13.9438 19.341C13.6811 19.9912 13.1296 20.4381 12.4963 20.5933L12.4048 20.6157L12.3848 20.7078C12.05 22.2495 12.064 23.8102 12.3855 25.2924L12.4055 25.3844L12.497 25.4069C13.13 25.5622 13.6812 26.009 13.9438 26.6589C14.2064 27.3088 14.1203 28.0129 13.773 28.5644L13.7228 28.6441L13.7724 28.7242C14.6172 30.0885 15.7689 31.2751 17.1785 32.1679L17.2581 32.2184L17.3383 32.1689C17.8935 31.8269 18.599 31.7479 19.2465 32.0174C19.8939 32.2869 20.3349 32.843 20.4835 33.4779L20.5049 33.5697L20.5968 33.5906C22.213 33.9594 23.8529 33.9432 25.4035 33.5899L25.4953 33.569L25.5168 33.4773C25.6655 32.8427 26.1065 32.2868 26.7537 32.0174C27.4008 31.748 28.1059 31.8268 28.6609 32.1684L28.7412 32.2178L28.8208 32.1673C30.1753 31.3089 31.3499 30.1451 32.2285 28.7252L32.278 28.6451L32.2278 28.5653C31.88 28.0138 31.7936 27.3092 32.0563 26.6589C32.3191 26.0087 32.8706 25.5618 33.504 25.4067L33.5955 25.3843L33.6155 25.2922C33.9503 23.7505 33.9362 22.1898 33.6147 20.7077L33.5948 20.6156L33.5033 20.5931C32.8702 20.4378 32.3189 19.991 32.0563 19.341C31.7937 18.6911 31.8798 17.987 32.2272 17.4355L32.2774 17.3558L32.2278 17.2757C31.383 15.9114 30.2312 14.7248 28.8217 13.832L28.7421 13.7816L28.6619 13.831C28.1067 14.1731 27.4012 14.2521 26.7537 13.9826C26.1063 13.7131 25.6652 13.1569 25.5167 12.5221L25.4952 12.4303L25.4034 12.4094C23.7871 12.0405 22.1472 12.0568 20.5966 12.4101L20.5048 12.431L20.4833 12.5228C20.3346 13.1573 19.8936 13.7132 19.2465 13.9825C18.5994 14.2519 17.8943 14.1732 17.3393 13.8316ZM20.6435 29.1403L20.8484 29.219V25.2784H25.0438V29.2552L25.2462 29.1817C27.7714 28.264 29.5755 25.8429 29.5755 23C29.5755 19.3686 26.6316 16.4247 23.0002 16.4247C19.3687 16.4247 16.4249 19.3686 16.4249 23C16.4249 25.8012 18.1764 28.1928 20.6435 29.1403ZM30.3445 23C30.3445 27.0562 27.0563 30.3443 23.0002 30.3443C18.944 30.3443 15.6558 27.0562 15.6558 23C15.6558 18.9438 18.944 15.6556 23.0002 15.6556C27.0563 15.6556 30.3445 18.9438 30.3445 23ZM22.9461 19.6766C24.1046 19.6766 25.0438 20.6157 25.0438 21.7743C25.0438 22.9328 24.1046 23.872 22.9461 23.872C21.7876 23.872 20.8484 22.9328 20.8484 21.7743C20.8484 20.6157 21.7876 19.6766 22.9461 19.6766Z" fill="white"/>
<path fill-rule="evenodd" clip-rule="evenodd" d="M17.2648 13.9676C17.8589 14.3332 18.6142 14.4177 19.3073 14.1292C20.0006 13.8406 20.4728 13.245 20.632 12.5658C22.1598 12.2177 23.7754 12.2017 25.3677 12.5651C25.5267 13.2446 25.999 13.8405 26.6925 14.1292C27.3861 14.4179 28.1419 14.3331 28.7361 13.967C30.1247 14.8465 31.2595 16.0156 32.0919 17.3598C31.7201 17.95 31.6276 18.7044 31.9089 19.4005C32.1902 20.0968 32.7809 20.5753 33.4585 20.7415C33.7752 22.2018 33.7891 23.7395 33.4592 25.2583C32.7814 25.4244 32.1903 25.9029 31.9089 26.5995C31.6275 27.296 31.7202 28.0508 32.0925 28.6411C31.2269 30.04 30.0698 31.1866 28.7351 32.0324C28.141 31.6668 27.3857 31.5822 26.6925 31.8708C25.9992 32.1594 25.527 32.755 25.3678 33.4342C23.84 33.7823 22.2245 33.7983 20.6322 33.4349C20.4732 32.7554 20.0008 32.1595 19.3074 31.8708C18.6138 31.5821 17.858 31.6669 17.2638 32.033C15.8752 31.1534 14.7404 29.9844 13.908 28.6401C14.2797 28.0499 14.3721 27.2956 14.0909 26.5995C13.8096 25.9032 13.219 25.4248 12.5415 25.2585C12.2247 23.7982 12.2109 22.2605 12.5407 20.7417C13.2186 20.5756 13.8095 20.097 14.0909 19.4005C14.3723 18.704 14.2797 17.9493 13.9074 17.3589C14.773 15.96 15.9301 14.8135 17.2648 13.9676ZM23 30.489C27.1361 30.489 30.489 27.136 30.489 23C30.489 18.8639 27.1361 15.511 23 15.511C18.8639 15.511 15.511 18.8639 15.511 23C15.511 27.136 18.8639 30.489 23 30.489ZM20.6993 28.9945V25.1258H25.1927V29.0349C27.6582 28.1389 29.4192 25.7751 29.4192 23C29.4192 19.4548 26.5452 16.5809 23 16.5809C19.4548 16.5809 16.5809 19.4548 16.5809 23C16.5809 25.7344 18.2906 28.0695 20.6993 28.9945ZM25.1927 21.7753C25.1927 20.5345 24.1868 19.5286 22.946 19.5286C21.7052 19.5286 20.6993 20.5345 20.6993 21.7753C20.6993 23.0161 21.7052 24.022 22.946 24.022C24.1868 24.022 25.1927 23.0161 25.1927 21.7753Z" fill="#39444F"/>
<rect x="-11.5" y="-11.5" width="69" height="69" fill="url(#paint10_radial_29_711)"/>
</g>
<defs>
<linearGradient id="paint0_linear_29_711" x1="0" y1="0" x2="46" y2="46" gradientUnits="userSpaceOnUse">
<stop stop-color="#F6C134"/>
<stop offset="1" stop-color="#E8BB43"/>
</linearGradient>
<linearGradient id="paint1_linear_29_711" x1="0" y1="0" x2="46" y2="46" gradientUnits="userSpaceOnUse">
<stop stop-color="#F6C134"/>
<stop offset="1" stop-color="#E8BB43"/>
</linearGradient>
<radialGradient id="paint2_radial_29_711" cx="0" cy="0" r="1" gradientUnits="userSpaceOnUse" gradientTransform="translate(34.1007 34.2604) rotate(90) scale(7.26736)">
<stop stop-opacity="0.17"/>
<stop offset="0.932292" stop-opacity="0"/>
</radialGradient>
<linearGradient id="paint3_linear_29_711" x1="23.3593" y1="19.2216" x2="39.3041" y2="39.4638" gradientUnits="userSpaceOnUse">
<stop offset="0.348066" stop-color="#3E2723" stop-opacity="0.15"/>
<stop offset="0.685083" stop-color="#3E2723" stop-opacity="0.02"/>
<stop offset="1" stop-color="#3E2723" stop-opacity="0"/>
</linearGradient>
<linearGradient id="paint4_linear_29_711" x1="22.9606" y1="18.8227" x2="39.1772" y2="39.3368" gradientUnits="userSpaceOnUse">
<stop offset="0.348066" stop-color="#3E2723" stop-opacity="0.15"/>
<stop offset="0.685083" stop-color="#3E2723" stop-opacity="0.02"/>
<stop offset="1" stop-color="#3E2723" stop-opacity="0"/>
</linearGradient>
<linearGradient id="paint5_linear_29_711" x1="22.9596" y1="19.2197" x2="39.05" y2="39.2098" gradientUnits="userSpaceOnUse">
<stop offset="0.348066" stop-color="#3E2723" stop-opacity="0.15"/>
<stop offset="0.685083" stop-color="#3E2723" stop-opacity="0.02"/>
<stop offset="1" stop-color="#3E2723" stop-opacity="0"/>
</linearGradient>
<linearGradient id="paint6_linear_29_711" x1="23.0385" y1="18.8209" x2="38.9231" y2="39.0828" gradientUnits="userSpaceOnUse">
<stop offset="0.348066" stop-color="#3E2723" stop-opacity="0.15"/>
<stop offset="0.685083" stop-color="#3E2723" stop-opacity="0.02"/>
<stop offset="1" stop-color="#3E2723" stop-opacity="0"/>
</linearGradient>
<linearGradient id="paint7_linear_29_711" x1="22.9581" y1="18.9792" x2="38.7962" y2="38.9558" gradientUnits="userSpaceOnUse">
<stop offset="0.348066" stop-color="#3E2723" stop-opacity="0.15"/>
<stop offset="0.685083" stop-color="#3E2723" stop-opacity="0.02"/>
<stop offset="1" stop-color="#3E2723" stop-opacity="0"/>
</linearGradient>
<linearGradient id="paint8_linear_29_711" x1="23.196" y1="19.3762" x2="38.669" y2="38.8288" gradientUnits="userSpaceOnUse">
<stop offset="0.348066" stop-color="#3E2723" stop-opacity="0.15"/>
<stop offset="0.685083" stop-color="#3E2723" stop-opacity="0.02"/>
<stop offset="1" stop-color="#3E2723" stop-opacity="0"/>
</linearGradient>
<radialGradient id="paint9_radial_29_711" cx="0" cy="0" r="1" gradientUnits="userSpaceOnUse" gradientTransform="translate(24.118 24.118) rotate(90) scale(18.5278)">
<stop stop-opacity="0.48"/>
<stop offset="0.953125" stop-opacity="0"/>
</radialGradient>
<radialGradient id="paint10_radial_29_711" cx="0" cy="0" r="1" gradientUnits="userSpaceOnUse" gradientTransform="translate(6.70833 6.70833) rotate(45) scale(46.0798)">
<stop stop-color="white" stop-opacity="0.32"/>
<stop offset="0.353591" stop-color="white" stop-opacity="0.16"/>
<stop offset="1" stop-color="white" stop-opacity="0"/>
</radialGradient>
</defs>
</svg>
