<svg width="46" height="46" viewBox="0 0 46 46" fill="none" xmlns="http://www.w3.org/2000/svg">
<mask id="mask0_29_6378" style="mask-type:alpha" maskUnits="userSpaceOnUse" x="0" y="0" width="46" height="46">
<path d="M0 9.96667C0 4.46223 4.46223 0 9.96667 0H36.0333C41.5378 0 46 4.46223 46 9.96667V36.0333C46 41.5378 41.5378 46 36.0333 46H9.96667C4.46223 46 0 41.5378 0 36.0333V9.96667Z" fill="url(#paint0_linear_29_6378)"/>
</mask>
<g mask="url(#mask0_29_6378)">
<path d="M0 9.96667C0 4.46223 4.46223 0 9.96667 0H36.0333C41.5378 0 46 4.46223 46 9.96667V36.0333C46 41.5378 41.5378 46 36.0333 46H9.96667C4.46223 46 0 41.5378 0 36.0333V9.96667Z" fill="url(#paint1_linear_29_6378)"/>
<ellipse opacity="0.28" cx="35.2987" cy="35.2987" rx="12.1389" ry="12.1389" fill="url(#paint2_radial_29_6378)"/>
<path fill-rule="evenodd" clip-rule="evenodd" d="M28.9098 34.9684L39.4147 45.4734C41.0788 47.1374 43.7759 47.1374 45.4399 45.4734C47.104 43.8094 47.104 41.1136 45.4399 39.4496L34.9001 28.9098C33.3555 31.3289 31.31 33.3971 28.9098 34.9684Z" fill="white"/>
<path fill-rule="evenodd" clip-rule="evenodd" d="M28.75 34.8087L39.2549 45.3137C40.919 46.9777 43.6161 46.9777 45.2801 45.3137C46.9442 43.6496 46.9442 40.9539 45.2801 39.2899L34.7403 28.7501C33.1957 31.1692 31.1502 33.2374 28.75 34.8087Z" fill="#FAFAFA"/>
<path opacity="0.16" d="M57.3403 35.1255L34.3537 12.139L11.9792 34.5135L34.9657 57.5001H57.3403V35.1255Z" fill="url(#paint3_linear_29_6378)"/>
<path opacity="0.16" d="M57.3404 34.9679L34.1919 11.8195L11.6598 34.3517L34.8082 57.5001H57.3404V34.9679Z" fill="url(#paint4_linear_29_6378)"/>
<path opacity="0.16" d="M57.3402 34.8104L34.0299 11.5001L11.3402 34.1898L34.6505 57.5001H57.3402V34.8104Z" fill="url(#paint5_linear_29_6378)"/>
<path opacity="0.16" d="M57.3403 34.6528L33.8681 11.1806L11.0208 34.0279L34.493 57.5001H57.3403V34.6528Z" fill="url(#paint6_linear_29_6378)"/>
<path opacity="0.16" d="M57.3404 34.4952L33.7063 10.8612L10.7015 33.866L34.3355 57.5001H57.3404V34.4952Z" fill="url(#paint7_linear_29_6378)"/>
<path opacity="0.16" d="M57.3402 34.3377L33.5443 10.5417L10.3819 33.7042L34.1778 57.5001H57.3402V34.3377Z" fill="url(#paint8_linear_29_6378)"/>
<ellipse cx="24.118" cy="24.1181" rx="18.5278" ry="18.5278" fill="url(#paint9_radial_29_6378)"/>
<ellipse cx="23.0001" cy="23.0001" rx="16.6111" ry="16.6111" fill="white"/>
<ellipse cx="23.0001" cy="23.0001" rx="16.3319" ry="16.6111" transform="rotate(45 23.0001 23.0001)" fill="#FAFAFA"/>
<path fill-rule="evenodd" clip-rule="evenodd" d="M17.3392 13.8317L17.259 13.7823L17.1794 13.8327C15.8248 14.6912 14.6503 15.855 13.7717 17.2749L13.7221 17.3551L13.7724 17.4348C14.1202 17.9863 14.2065 18.6909 13.9438 19.3411C13.6811 19.9913 13.1296 20.4382 12.4962 20.5933L12.4047 20.6158L12.3847 20.7078C12.0499 22.2496 12.064 23.8103 12.3855 25.2924L12.4054 25.3845L12.4969 25.407C13.13 25.5623 13.6812 26.0091 13.9438 26.659C14.2063 27.3089 14.1202 28.013 13.7729 28.5645L13.7227 28.6442L13.7723 28.7243C14.6171 30.0885 15.7689 31.2752 17.1784 32.168L17.2581 32.2184L17.3383 32.169C17.8935 31.827 18.599 31.748 19.2464 32.0175C19.8938 32.287 20.3349 32.8431 20.4834 33.478L20.5049 33.5697L20.5967 33.5907C22.213 33.9595 23.8528 33.9433 25.4034 33.59L25.4953 33.5691L25.5168 33.4773C25.6655 32.8427 26.1064 32.2869 26.7536 32.0175C27.4007 31.7481 28.1058 31.8269 28.6609 32.1685L28.7411 32.2178L28.8207 32.1674C30.1753 31.3089 31.3498 30.1452 32.2284 28.7253L32.278 28.6451L32.2277 28.5654C31.8799 28.0138 31.7936 27.3092 32.0563 26.659C32.319 26.0088 32.8706 25.5619 33.5039 25.4068L33.5955 25.3843L33.6154 25.2922C33.9502 23.7506 33.9362 22.1898 33.6147 20.7077L33.5947 20.6157L33.5032 20.5932C32.8701 20.4379 32.3189 19.9911 32.0563 19.3411C31.7937 18.6912 31.8798 17.987 32.2272 17.4356L32.2774 17.3559L32.2278 17.2758C31.383 15.9115 30.2312 14.7249 28.8217 13.8321L28.7421 13.7817L28.6618 13.8311C28.1066 14.1732 27.4011 14.2522 26.7536 13.9826C26.1062 13.7132 25.6652 13.157 25.5166 12.5221L25.4952 12.4304L25.4033 12.4094C23.787 12.0406 22.1472 12.0568 20.5966 12.4102L20.5047 12.4311L20.4832 12.5228C20.3345 13.1574 19.8936 13.7132 19.2464 13.9826C18.5993 14.252 17.8943 14.1733 17.3392 13.8317ZM20.6434 29.1404L20.8483 29.2191V25.2784H25.0438V29.2553L25.2461 29.1818C27.7714 28.2641 29.5754 25.8429 29.5754 23.0001C29.5754 19.3686 26.6316 16.4248 23.0001 16.4248C19.3687 16.4248 16.4248 19.3686 16.4248 23.0001C16.4248 25.8012 18.1764 28.1929 20.6434 29.1404ZM30.3445 23.0001C30.3445 27.0562 27.0563 30.3444 23.0001 30.3444C18.9439 30.3444 15.6558 27.0562 15.6558 23.0001C15.6558 18.9439 18.9439 15.6557 23.0001 15.6557C27.0563 15.6557 30.3445 18.9439 30.3445 23.0001ZM22.9461 19.6766C24.1046 19.6766 25.0438 20.6158 25.0438 21.7743C25.0438 22.9329 24.1046 23.872 22.9461 23.872C21.7875 23.872 20.8483 22.9329 20.8483 21.7743C20.8483 20.6158 21.7875 19.6766 22.9461 19.6766Z" fill="white"/>
<path fill-rule="evenodd" clip-rule="evenodd" d="M17.2648 13.9677C17.8588 14.3332 18.6141 14.4178 19.3073 14.1292C20.0005 13.8407 20.4728 13.2451 20.6319 12.5659C22.1597 12.2178 23.7753 12.2018 25.3676 12.5652C25.5266 13.2447 25.999 13.8406 26.6924 14.1293C27.386 14.418 28.1418 14.3332 28.736 13.967C30.1247 14.8466 31.2594 16.0156 32.0918 17.3599C31.72 17.9501 31.6276 18.7045 31.9089 19.4006C32.1902 20.0969 32.7809 20.5754 33.4584 20.7416C33.7752 22.2019 33.789 23.7395 33.4592 25.2584C32.7813 25.4244 32.1903 25.903 31.9089 26.5995C31.6275 27.2961 31.7202 28.0509 32.0924 28.6412C31.2269 30.0401 30.0697 31.1866 28.7351 32.0325C28.141 31.6669 27.3856 31.5823 26.6924 31.8709C25.9992 32.1595 25.5269 32.7551 25.3678 33.4343C23.84 33.7824 22.2244 33.7983 20.6321 33.435C20.4731 32.7555 20.0008 32.1596 19.3073 31.8709C18.6137 31.5822 17.858 31.667 17.2638 32.0331C15.8751 31.1535 14.7403 29.9844 13.908 28.6402C14.2797 28.05 14.3721 27.2956 14.0909 26.5995C13.8096 25.9033 13.2189 25.4248 12.5414 25.2586C12.2247 23.7983 12.2108 22.2606 12.5407 20.7417C13.2185 20.5757 13.8095 20.0971 14.0909 19.4006C14.3723 18.7041 14.2796 17.9493 13.9074 17.359C14.7729 15.9601 15.9301 14.8136 17.2648 13.9677ZM23 30.489C27.136 30.489 30.4889 27.1361 30.4889 23.0001C30.4889 18.864 27.136 15.5111 23 15.5111C18.8639 15.5111 15.511 18.864 15.511 23.0001C15.511 27.1361 18.8639 30.489 23 30.489ZM20.6992 28.9946V25.1258H25.1926V29.035C27.6581 28.139 29.4191 25.7752 29.4191 23.0001C29.4191 19.4549 26.5452 16.581 23 16.581C19.4548 16.581 16.5808 19.4549 16.5808 23.0001C16.5808 25.7345 18.2905 28.0695 20.6992 28.9946ZM25.1926 21.7754C25.1926 20.5345 24.1868 19.5287 22.9459 19.5287C21.7051 19.5287 20.6992 20.5345 20.6992 21.7754C20.6992 23.0162 21.7051 24.0221 22.9459 24.0221C24.1868 24.0221 25.1926 23.0162 25.1926 21.7754Z" fill="#39444F"/>
<rect x="-11.5" y="-11.5" width="69" height="69" fill="url(#paint10_radial_29_6378)"/>
</g>
<defs>
<linearGradient id="paint0_linear_29_6378" x1="0" y1="0" x2="46" y2="46" gradientUnits="userSpaceOnUse">
<stop stop-color="#4FA0EE"/>
<stop offset="1" stop-color="#3B80C3"/>
</linearGradient>
<linearGradient id="paint1_linear_29_6378" x1="0" y1="0" x2="46" y2="46" gradientUnits="userSpaceOnUse">
<stop stop-color="#4FA0EE"/>
<stop offset="1" stop-color="#3B80C3"/>
</linearGradient>
<radialGradient id="paint2_radial_29_6378" cx="0" cy="0" r="1" gradientUnits="userSpaceOnUse" gradientTransform="translate(35.2987 35.2987) rotate(90) scale(12.1389)">
<stop stop-opacity="0.48"/>
<stop offset="0.953125" stop-opacity="0"/>
</radialGradient>
<linearGradient id="paint3_linear_29_6378" x1="23.3592" y1="19.2217" x2="39.3041" y2="39.4639" gradientUnits="userSpaceOnUse">
<stop offset="0.348066" stop-color="#3E2723" stop-opacity="0.15"/>
<stop offset="0.685083" stop-color="#3E2723" stop-opacity="0.02"/>
<stop offset="1" stop-color="#3E2723" stop-opacity="0"/>
</linearGradient>
<linearGradient id="paint4_linear_29_6378" x1="22.9606" y1="18.8228" x2="39.1772" y2="39.3369" gradientUnits="userSpaceOnUse">
<stop offset="0.348066" stop-color="#3E2723" stop-opacity="0.15"/>
<stop offset="0.685083" stop-color="#3E2723" stop-opacity="0.02"/>
<stop offset="1" stop-color="#3E2723" stop-opacity="0"/>
</linearGradient>
<linearGradient id="paint5_linear_29_6378" x1="22.9596" y1="19.2198" x2="39.05" y2="39.2099" gradientUnits="userSpaceOnUse">
<stop offset="0.348066" stop-color="#3E2723" stop-opacity="0.15"/>
<stop offset="0.685083" stop-color="#3E2723" stop-opacity="0.02"/>
<stop offset="1" stop-color="#3E2723" stop-opacity="0"/>
</linearGradient>
<linearGradient id="paint6_linear_29_6378" x1="23.0384" y1="18.821" x2="38.923" y2="39.0828" gradientUnits="userSpaceOnUse">
<stop offset="0.348066" stop-color="#3E2723" stop-opacity="0.15"/>
<stop offset="0.685083" stop-color="#3E2723" stop-opacity="0.02"/>
<stop offset="1" stop-color="#3E2723" stop-opacity="0"/>
</linearGradient>
<linearGradient id="paint7_linear_29_6378" x1="22.9581" y1="18.9792" x2="38.7961" y2="38.9558" gradientUnits="userSpaceOnUse">
<stop offset="0.348066" stop-color="#3E2723" stop-opacity="0.15"/>
<stop offset="0.685083" stop-color="#3E2723" stop-opacity="0.02"/>
<stop offset="1" stop-color="#3E2723" stop-opacity="0"/>
</linearGradient>
<linearGradient id="paint8_linear_29_6378" x1="23.1959" y1="19.3763" x2="38.6689" y2="38.8288" gradientUnits="userSpaceOnUse">
<stop offset="0.348066" stop-color="#3E2723" stop-opacity="0.15"/>
<stop offset="0.685083" stop-color="#3E2723" stop-opacity="0.02"/>
<stop offset="1" stop-color="#3E2723" stop-opacity="0"/>
</linearGradient>
<radialGradient id="paint9_radial_29_6378" cx="0" cy="0" r="1" gradientUnits="userSpaceOnUse" gradientTransform="translate(24.118 24.1181) rotate(90) scale(18.5278 18.5278)">
<stop stop-opacity="0.48"/>
<stop offset="0.953125" stop-opacity="0"/>
</radialGradient>
<radialGradient id="paint10_radial_29_6378" cx="0" cy="0" r="1" gradientUnits="userSpaceOnUse" gradientTransform="translate(6.70833 6.70833) rotate(45) scale(46.0798)">
<stop stop-color="white" stop-opacity="0.16"/>
<stop offset="0.353591" stop-color="white" stop-opacity="0.08"/>
<stop offset="1" stop-color="white" stop-opacity="0"/>
</radialGradient>
</defs>
</svg>
