<svg width="46" height="46" viewBox="0 0 46 46" fill="none" xmlns="http://www.w3.org/2000/svg">
<mask id="mask0_29_662" style="mask-type:alpha" maskUnits="userSpaceOnUse" x="0" y="0" width="46" height="46">
<path d="M0 9.96667C0 4.46223 4.46223 0 9.96667 0H36.0333C41.5378 0 46 4.46223 46 9.96667V36.0333C46 41.5378 41.5378 46 36.0333 46H9.96667C4.46223 46 0 41.5378 0 36.0333V9.96667Z" fill="url(#paint0_linear_29_662)"/>
</mask>
<g mask="url(#mask0_29_662)">
<path d="M0 9.96667C0 4.46223 4.46223 0 9.96667 0H36.0333C41.5378 0 46 4.46223 46 9.96667V36.0333C46 41.5378 41.5378 46 36.0333 46H9.96667C4.46223 46 0 41.5378 0 36.0333V9.96667Z" fill="url(#paint1_linear_29_662)"/>
<mask id="mask1_29_662" style="mask-type:alpha" maskUnits="userSpaceOnUse" x="-12" y="-12" width="69" height="69">
<rect x="-11.4521" y="-11.452" width="68.1375" height="68.1375" fill="white"/>
</mask>
<g mask="url(#mask1_29_662)">
<path opacity="0.16" d="M58.7358 34.2015L36.2764 11.1027L14.4149 33.5866L35.297 56.6854H58.7358V34.2015Z" fill="url(#paint2_linear_29_662)"/>
<path opacity="0.16" d="M58.7359 34.0459L36.1166 10.7873L14.0995 33.4267L35.1415 56.6854H58.7359V34.0459Z" fill="url(#paint3_linear_29_662)"/>
<path opacity="0.16" d="M58.7359 33.8903L35.9568 10.4718L13.7841 33.2669L34.986 56.6854H58.7359V33.8903Z" fill="url(#paint4_linear_29_662)"/>
<path opacity="0.16" d="M58.7358 33.7348L35.7968 10.1564L13.4685 33.1071L34.8302 56.6855H58.7358V33.7348Z" fill="url(#paint5_linear_29_662)"/>
<path opacity="0.16" d="M58.7359 33.5792L35.637 9.84091L13.1531 32.9472L34.6747 56.6854H58.7359V33.5792Z" fill="url(#paint6_linear_29_662)"/>
<path opacity="0.16" d="M58.7359 33.4236L35.4772 9.52545L12.8377 32.7873L34.5192 56.6854H58.7359V33.4236Z" fill="url(#paint7_linear_29_662)"/>
</g>
<circle cx="23.0898" cy="27.8216" r="17.0344" fill="url(#paint8_radial_29_662)"/>
<path d="M38.3892 18.969C38.3892 31.5407 22.6166 41.3861 22.6166 41.3861C22.6166 41.3861 6.84402 31.5407 6.84402 18.969C6.84402 9.35083 13.9056 3.21643 22.6166 3.21643C31.3275 3.21643 38.3892 9.35083 38.3892 18.969Z" fill="white"/>
<path d="M38.2315 18.969C38.2315 31.5407 22.6167 41.3861 22.6167 41.3861C22.6167 41.3861 7.00182 31.5407 7.00182 18.969C7.00182 9.35083 13.9928 3.21643 22.6167 3.21643C31.2405 3.21643 38.2315 9.35083 38.2315 18.969Z" fill="#FAFAFA"/>
<path fill-rule="evenodd" clip-rule="evenodd" d="M17.0266 10.0929L16.9474 10.0442L16.8688 10.094C15.5312 10.9417 14.3713 12.091 13.5037 13.4931L13.4548 13.5723L13.5044 13.651C13.8478 14.1956 13.9331 14.8914 13.6737 15.5335C13.4142 16.1756 12.8696 16.6168 12.2442 16.7701L12.1538 16.7922L12.1341 16.8831C11.8035 18.4056 11.8174 19.9468 12.1348 21.4104L12.1545 21.5013L12.2449 21.5235C12.87 21.6769 13.4143 22.1181 13.6736 22.7599C13.9329 23.4016 13.8479 24.097 13.5049 24.6415L13.4554 24.7202L13.5043 24.7993C14.3386 26.1466 15.4759 27.3184 16.8679 28.2001L16.9465 28.2498L17.0257 28.201C17.574 27.8633 18.2706 27.7853 18.91 28.0514C19.5493 28.3175 19.9848 28.8667 20.1315 29.4936L20.1527 29.5842L20.2434 29.6049C21.8395 29.9691 23.4588 29.9532 24.99 29.6043L25.0807 29.5836L25.102 29.493C25.2488 28.8663 25.6843 28.3174 26.3234 28.0514C26.9624 27.7854 27.6587 27.8632 28.2068 28.2005L28.286 28.2493L28.3646 28.1995C29.7023 27.3517 30.8621 26.2025 31.7297 24.8003L31.7787 24.7212L31.7291 24.6425C31.3856 24.0978 31.3003 23.402 31.5598 22.7599C31.8192 22.1178 32.3638 21.6765 32.9893 21.5233L33.0797 21.5012L33.0994 21.4102C33.43 19.8878 33.4161 18.3466 33.0987 16.883L33.079 16.7921L32.9886 16.7699C32.3634 16.6166 31.8191 16.1754 31.5597 15.5335C31.3004 14.8917 31.3855 14.1963 31.7285 13.6518L31.7781 13.573L31.7291 13.4939C30.8949 12.1467 29.7575 10.975 28.3656 10.0933L28.287 10.0435L28.2077 10.0923C27.6595 10.4301 26.9628 10.5081 26.3234 10.242C25.6841 9.97587 25.2485 9.42669 25.1018 8.79974L25.0806 8.70915L24.9899 8.68845C23.3939 8.32425 21.7745 8.34026 20.2433 8.68918L20.1526 8.70985L20.1314 8.80043C19.9845 9.42708 19.5491 9.97594 18.91 10.242C18.271 10.508 17.5748 10.4302 17.0266 10.0929ZM20.2895 25.2103L20.4919 25.288V21.3966H24.6349V25.3237L24.8347 25.2511C27.3284 24.3449 29.1099 21.954 29.1099 19.1467C29.1099 15.5607 26.2028 12.6536 22.6168 12.6536C19.0307 12.6536 16.1237 15.5607 16.1237 19.1467C16.1237 21.9128 17.8533 24.2746 20.2895 25.2103ZM29.8693 19.1467C29.8693 23.1522 26.6222 26.3992 22.6168 26.3992C18.6113 26.3992 15.3642 23.1522 15.3642 19.1467C15.3642 15.1412 18.6113 11.8941 22.6168 11.8941C26.6222 11.8941 29.8693 15.1412 29.8693 19.1467ZM22.5634 15.8648C23.7074 15.8648 24.6349 16.7922 24.6349 17.9363C24.6349 19.0803 23.7074 20.0078 22.5634 20.0078C21.4193 20.0078 20.4919 19.0803 20.4919 17.9363C20.4919 16.7922 21.4193 15.8648 22.5634 15.8648Z" fill="white"/>
<path fill-rule="evenodd" clip-rule="evenodd" d="M16.9531 10.2272C17.5398 10.5882 18.2856 10.6717 18.9701 10.3867C19.6547 10.1018 20.121 9.51365 20.2782 8.84295C21.7869 8.49916 23.3823 8.48341 24.9547 8.84222C25.1117 9.51324 25.5781 10.1017 26.263 10.3868C26.9479 10.6719 27.6942 10.5881 28.281 10.2266C29.6523 11.0951 30.7728 12.2495 31.5948 13.577C31.2277 14.1598 31.1364 14.9048 31.4142 15.5922C31.692 16.2798 32.2753 16.7523 32.9444 16.9164C33.2572 18.3585 33.2708 19.8769 32.9451 21.3768C32.2757 21.5407 31.6921 22.0133 31.4142 22.7011C31.1363 23.389 31.2278 24.1343 31.5955 24.7173C30.7407 26.0987 29.598 27.2309 28.28 28.0662C27.6934 27.7052 26.9475 27.6217 26.2629 27.9066C25.5784 28.1916 25.112 28.7797 24.9548 29.4505C23.4461 29.7942 21.8508 29.81 20.2784 29.4511C20.1214 28.7801 19.6549 28.1917 18.9701 27.9066C18.2852 27.6215 17.5389 27.7053 16.9521 28.0668C15.5808 27.1982 14.4603 26.0438 13.6383 24.7163C14.0053 24.1335 14.0966 23.3886 13.8189 22.7011C13.5411 22.0136 12.9579 21.5411 12.2888 21.377C11.976 19.9349 11.9624 18.4165 12.2881 16.9166C12.9574 16.7526 13.541 16.28 13.8189 15.5922C14.0968 14.9044 14.0053 14.1591 13.6377 13.5761C14.4925 12.1947 15.6351 11.0625 16.9531 10.2272ZM22.6166 26.542C26.701 26.542 30.012 23.231 30.012 19.1467C30.012 15.0623 26.701 11.7513 22.6166 11.7513C18.5323 11.7513 15.2212 15.0623 15.2212 19.1467C15.2212 23.231 18.5323 26.542 22.6166 26.542ZM20.3447 25.0663V21.2459H24.7819V25.1062C27.2166 24.2214 28.9555 21.8871 28.9555 19.1467C28.9555 15.6458 26.1175 12.8078 22.6166 12.8078C19.1158 12.8078 16.2777 15.6458 16.2777 19.1467C16.2777 21.8469 17.9661 24.1528 20.3447 25.0663ZM24.7819 17.9373C24.7819 16.712 23.7886 15.7187 22.5633 15.7187C21.338 15.7187 20.3447 16.712 20.3447 17.9373C20.3447 19.1626 21.338 20.1559 22.5633 20.1559C23.7886 20.1559 24.7819 19.1626 24.7819 17.9373Z" fill="#39444F"/>
<rect x="-11.4521" y="-11.4521" width="68.1375" height="68.1375" fill="url(#paint9_radial_29_662)"/>
</g>
<defs>
<linearGradient id="paint0_linear_29_662" x1="0" y1="0" x2="46" y2="46" gradientUnits="userSpaceOnUse">
<stop stop-color="#596E81"/>
<stop offset="1" stop-color="#39444F"/>
</linearGradient>
<linearGradient id="paint1_linear_29_662" x1="0" y1="0" x2="46" y2="46" gradientUnits="userSpaceOnUse">
<stop stop-color="#596E81"/>
<stop offset="1" stop-color="#39444F"/>
</linearGradient>
<linearGradient id="paint2_linear_29_662" x1="17.6354" y1="27.7428" x2="41.3294" y2="38.0647" gradientUnits="userSpaceOnUse">
<stop offset="0.348066" stop-color="#3E2723" stop-opacity="0.15"/>
<stop offset="0.685083" stop-color="#3E2723" stop-opacity="0.02"/>
<stop offset="1" stop-color="#3E2723" stop-opacity="0"/>
</linearGradient>
<linearGradient id="paint3_linear_29_662" x1="17.0139" y1="27.9794" x2="41.1877" y2="37.9511" gradientUnits="userSpaceOnUse">
<stop offset="0.348066" stop-color="#3E2723" stop-opacity="0.15"/>
<stop offset="0.685083" stop-color="#3E2723" stop-opacity="0.02"/>
<stop offset="1" stop-color="#3E2723" stop-opacity="0"/>
</linearGradient>
<linearGradient id="paint4_linear_29_662" x1="17.0059" y1="27.7428" x2="41.0654" y2="37.8261" gradientUnits="userSpaceOnUse">
<stop offset="0.348066" stop-color="#3E2723" stop-opacity="0.15"/>
<stop offset="0.685083" stop-color="#3E2723" stop-opacity="0.02"/>
<stop offset="1" stop-color="#3E2723" stop-opacity="0"/>
</linearGradient>
<linearGradient id="paint5_linear_29_662" x1="17.0745" y1="27.6639" x2="40.9381" y2="37.7067" gradientUnits="userSpaceOnUse">
<stop offset="0.348066" stop-color="#3E2723" stop-opacity="0.15"/>
<stop offset="0.685083" stop-color="#3E2723" stop-opacity="0.02"/>
<stop offset="1" stop-color="#3E2723" stop-opacity="0"/>
</linearGradient>
<linearGradient id="paint6_linear_29_662" x1="17.5272" y1="28.0582" x2="40.7982" y2="37.6045" gradientUnits="userSpaceOnUse">
<stop offset="0.348066" stop-color="#3E2723" stop-opacity="0.15"/>
<stop offset="0.685083" stop-color="#3E2723" stop-opacity="0.02"/>
<stop offset="1" stop-color="#3E2723" stop-opacity="0"/>
</linearGradient>
<linearGradient id="paint7_linear_29_662" x1="20.3595" y1="24.6671" x2="40.8009" y2="37.43" gradientUnits="userSpaceOnUse">
<stop offset="0.348066" stop-color="#3E2723" stop-opacity="0.15"/>
<stop offset="0.685083" stop-color="#3E2723" stop-opacity="0.02"/>
<stop offset="1" stop-color="#3E2723" stop-opacity="0"/>
</linearGradient>
<radialGradient id="paint8_radial_29_662" cx="0" cy="0" r="1" gradientUnits="userSpaceOnUse" gradientTransform="translate(23.0898 27.8216) rotate(90) scale(17.0344)">
<stop stop-opacity="0.17"/>
<stop offset="0.932292" stop-opacity="0"/>
</radialGradient>
<radialGradient id="paint9_radial_29_662" cx="0" cy="0" r="1" gradientUnits="userSpaceOnUse" gradientTransform="translate(6.52864 6.52864) rotate(45) scale(45.5038)">
<stop stop-color="white" stop-opacity="0.16"/>
<stop offset="0.353591" stop-color="white" stop-opacity="0.08"/>
<stop offset="1" stop-color="white" stop-opacity="0"/>
</radialGradient>
</defs>
</svg>
