<svg width="17" height="18" viewBox="0 0 17 18" fill="none" xmlns="http://www.w3.org/2000/svg">
<path d="M0.350591 0.233154C0.140236 0.443509 0 0.7941 0 1.21481V16.7109C0 17.1316 0.140236 17.4822 0.350591 17.6926L0.42071 17.7627L9.11537 9.06805V8.99793V8.92781L0.350591 0.233154Z" fill="#01BCE4"/>
<path d="M11.9201 12.013L9.04525 9.13816V9.06804V8.99792L11.9201 6.12308L11.9902 6.1932L15.426 8.15651C16.4077 8.71745 16.4077 9.62899 15.426 10.1899L11.9201 12.013Z" fill="#FFBD00"/>
<path d="M11.9902 11.9426L9.0452 8.99763L0.350548 17.6923C0.701139 18.0429 1.19197 18.0429 1.82303 17.7624L11.9902 11.9426Z" fill="#FF3A44"/>
<path d="M11.9903 6.05276L1.75305 0.232953C1.12198 -0.117638 0.631154 -0.0475201 0.280563 0.303071L9.04534 9.06785L11.9903 6.05276Z" fill="#06E775"/>
<path opacity="0.2" d="M11.9201 11.8727L1.75291 17.6925C1.19197 18.0431 0.701139 17.9729 0.350548 17.6925L0.420666 17.7626C0.771257 18.0431 1.26208 18.1132 1.82303 17.7626L11.9201 11.8727Z" fill="black"/>
<path opacity="0.12" d="M0.350592 17.6224C0.140237 17.4121 0 17.0615 0 16.6408V16.7109C0 17.1316 0.140237 17.4822 0.350592 17.6925V17.6224Z" fill="black"/>
<path opacity="0.12" d="M15.4261 9.90917L11.9202 11.8725L11.9903 11.9426L15.4261 9.97929C15.917 9.69882 16.1273 9.34823 16.1273 8.99763C16.1273 9.34823 15.917 9.6287 15.4261 9.90917Z" fill="black"/>
<path d="M1.75299 0.30319L15.426 8.08631C15.8467 8.36678 16.1272 8.64726 16.1272 8.99785C16.1272 8.64726 15.9169 8.29667 15.426 8.01619L1.75299 0.233072C0.771331 -0.327873 3.05176e-05 0.162954 3.05176e-05 1.28485V1.35496C3.05176e-05 0.233072 0.771331 -0.257756 1.75299 0.30319Z" fill="white"/>
</svg>
